<?xml version="1.0" encoding="UTF-8"?>
<svg width="338.67mm" height="190.5mm" baseProfile="tiny" version="1.2" viewBox="0 0 1280 720" xmlns="http://www.w3.org/2000/svg">
 <title>Vektor-Editor Export</title>
 <desc>SVG export from PyQt6 QGraphicsScene</desc>
 <g fill-rule="evenodd" font-family="Segoe UI" font-size="12" font-weight="400" stroke-linecap="square" stroke-linejoin="bevel">
  <g>
   <rect width="1280" height="720"/>
  </g>
  <g transform="translate(168 299)" fill="none" stroke="#a6cee3" stroke-linecap="round" stroke-linejoin="round" stroke-width="2">
   <path d="m0 0v-1-9-2l6-13 22-29 50-34 86-39 84-27 8-3 98-19 62-4 40 12 1 2 17 22 1 2 6 34-7 50-27 52-29 48-18 45 4 36 29 24 43 7 60-11 64-13 43-5h11l2 3 8 8 14 17 24 15 25 9 25 5 14 1v-1" fill-rule="evenodd"/>
  </g>
  <g transform="translate(129 297)" fill="none" stroke="#a6cee3" stroke-linecap="round" stroke-linejoin="round" stroke-width="12">
   <path d="m0 0h-1v2l2 10v2l2 2 10 19 42 39 40 24 41 14h3l33 6 1 1 22 5 6 4v4l-6 12-6 11-2 1-4 14-3 10-1 10v8 6h2l2-4 1-4" fill-rule="evenodd"/>
  </g>
  <g fill="none" stroke="#e31a1c" stroke-linecap="round" stroke-linejoin="round" stroke-width="12">
   <path d="m477 197 419 254-30.061-37.421m30.061 37.421-47.082-9.343" fill-rule="evenodd"/>
  </g>
  <g fill="#6a3d9a" stroke="#6a3d9a" stroke-linecap="round" stroke-linejoin="round" stroke-width="12">
   <ellipse cx="897" cy="311" rx="53" ry="41"/>
  </g>
  <g fill="#b15928" stroke="#b15928" stroke-linecap="round" stroke-linejoin="round" stroke-width="12">
   <rect x="578" y="507" width="431" height="116"/>
  </g>
  <g fill="none" stroke="#e31a1c" stroke-linecap="round" stroke-linejoin="round" stroke-width="12">
   <rect x="88" y="60" width="278" height="240"/>
  </g>
  <g fill="none" stroke="#cab2d6" stroke-linecap="round" stroke-linejoin="round" stroke-width="42">
   <ellipse cx="1096.5" cy="217.5" rx="117.5" ry="106.5"/>
  </g>
  <g transform="translate(195 526)" fill="none" stroke="#b2df8a" stroke-linecap="round" stroke-linejoin="round" stroke-width="42">
   <path d="m0 0v20l3 7 7 17 9 10 14 11h1l17 10h1l19 11 26 7 30 3h30l30-2 24-6 15-8 9-7 8-11 7-15 6-16 3-17 3-13 1-14 2-15v-21l-2-22-6-23-8-19-8-12-6-12-6-11-14-18-5-4-3-3-3-2-3-6-3-9-1-10v-9l5-11 11-10 16-11 2-1 20-9 22-8 7-1" fill-rule="evenodd"/>
  </g>
  <g fill="#ff7f00">
   <path d="m452.01 435.71c-2.278 1.203-5.113 1.805-8.508 1.805-4.383 0-7.892-1.411-10.527-4.233-2.636-2.821-3.953-6.524-3.953-11.107 0-4.927 1.482-8.909 4.447-11.946 2.965-3.036 6.724-4.554 11.279-4.554 2.922 0 5.343 0.422 7.262 1.267v3.846c-2.206-1.232-4.641-1.848-7.305-1.848-3.538 0-6.406 1.182-8.604 3.545-2.199 2.364-3.298 5.522-3.298 9.475 0 3.753 1.027 6.742 3.083 8.97 2.055 2.227 4.751 3.34 8.089 3.34 3.093 0 5.772-0.687 8.035-2.062v3.502m23.474-8.83h-15.533c0.058 2.449 0.716 4.34 1.977 5.672 1.26 1.332 2.993 1.998 5.199 1.998 2.478 0 4.755-0.817 6.832-2.449v3.308c-1.934 1.404-4.49 2.106-7.67 2.106-3.108 0-5.55-0.999-7.326-2.997s-2.664-4.809-2.664-8.433c0-3.423 0.97-6.213 2.911-8.368 1.941-2.156 4.351-3.234 7.23-3.234 2.878 0 5.106 0.931 6.681 2.793 1.576 1.862 2.363 4.448 2.363 7.756v1.848m-3.609-2.986c-0.014-2.034-0.505-3.617-1.472-4.749-0.966-1.131-2.309-1.697-4.028-1.697-1.661 0-3.072 0.595-4.232 1.783-1.161 1.189-1.877 2.743-2.149 4.663h11.881m27.19 13.105h-3.524v-12.547c0-4.669-1.704-7.004-5.113-7.004-1.762 0-3.219 0.663-4.372 1.988-1.153 1.324-1.73 2.997-1.73 5.016v12.547h-3.523v-22h3.523v3.652h0.086c1.662-2.778 4.068-4.168 7.219-4.168 2.406 0 4.247 0.777 5.521 2.331 1.275 1.554 1.913 3.8 1.913 6.736v13.449m24.89 0h-4.941l-9.711-10.57h-0.086v10.57h-3.524v-32.57h3.524v20.646h0.086l9.238-10.076h4.619l-10.205 10.613 11 11.387" fill-rule="nonzero"/>
  </g>
 </g>
</svg>
